<!DOCTYPE svg PUBLIC "-//W3C//DTD SVG 20010904//EN"
 "http://www.w3.org/TR/2001/REC-SVG-20010904/DTD/svg10.dtd">
<svg version="1.0" xmlns="http://www.w3.org/2000/svg"
 class="logo"
 viewBox="0 0 40.0 40.0"
 preserveAspectRatio="xMidYMid meet">
 <g transform="translate(0.000000,42.000000) scale(0.100000,-0.100000)"
fill="#000000" stroke="none">
<path fill ="#4d4e54" d="M161 243 c-7 -38 -11 -84 -9 -103 l3 -35 116 -3 116 -3 10 56 c9 52
9 56 -12 61 -11 3 -46 4 -76 2 -46 -3 -54 -6 -54 -23 0 -16 9 -21 40 -26 35
-5 31 -6 -24 -8 l-64 -1 7 42 c4 22 9 45 12 50 3 4 48 8 100 8 52 0 94 4 94 9
0 5 3 16 6 25 5 14 -9 16 -123 16 l-130 0 -12 -67z"/>
</g>
</svg>