<?xml version="1.0" standalone="no"?>
<!DOCTYPE svg PUBLIC "-//W3C//DTD SVG 20010904//EN"
 "http://www.w3.org/TR/2001/REC-SVG-20010904/DTD/svg10.dtd">
<svg version="1.0" xmlns="http://www.w3.org/2000/svg"
 width="282.000000pt" height="42.000000pt" viewBox="0 0 282.000000 42.000000"
 preserveAspectRatio="xMidYMid meet">

<g transform="translate(0.000000,42.000000) scale(0.100000,-0.100000)"
fill="#000000" stroke="none">
<path d="M161 243 c-7 -38 -11 -84 -9 -103 l3 -35 116 -3 116 -3 10 56 c9 52
9 56 -12 61 -11 3 -46 4 -76 2 -46 -3 -54 -6 -54 -23 0 -16 9 -21 40 -26 35
-5 31 -6 -24 -8 l-64 -1 7 42 c4 22 9 45 12 50 3 4 48 8 100 8 52 0 94 4 94 9
0 5 3 16 6 25 5 14 -9 16 -123 16 l-130 0 -12 -67z"/>
<path d="M438 285 l-5 -25 96 -2 c86 -2 88 -2 26 -5 -66 -4 -72 -6 -107 -43
-21 -22 -38 -48 -38 -59 0 -11 -3 -26 -6 -35 -5 -14 8 -16 109 -16 126 0 141
6 153 58 3 15 10 43 14 62 4 19 11 47 14 63 l6 27 -129 0 -129 0 -4 -25z m170
-102 c-3 -15 -16 -19 -67 -21 l-65 -3 25 20 c32 27 112 30 107 4z"/>
<path d="M696 223 c-9 -49 -20 -96 -22 -105 -4 -14 1 -18 21 -18 18 0 51 20
100 60 40 33 77 60 80 60 7 0 1 -43 -12 -97 -4 -20 -1 -23 22 -23 18 0 51 20
100 60 40 33 77 60 80 60 7 0 1 -53 -11 -98 -6 -22 -4 -23 27 -20 l33 3 19 88
c15 69 16 91 7 102 -22 26 -54 16 -117 -35 -34 -27 -65 -50 -69 -50 -3 0 -3
16 0 36 8 41 -6 64 -38 64 -12 0 -49 -22 -83 -50 -34 -27 -65 -50 -69 -50 -6
0 2 58 13 86 4 10 -3 14 -29 14 l-34 0 -18 -87z"/>
<path d="M1188 300 c-10 -7 -23 -39 -33 -88 -9 -42 -19 -85 -22 -94 -4 -17 7
-18 125 -18 l130 0 4 30 5 30 -94 0 c-55 0 -93 4 -93 10 0 6 30 10 70 10 66 0
73 2 104 33 19 18 36 46 40 65 l6 32 -113 0 c-61 0 -120 -5 -129 -10z m147
-60 c-3 -5 -31 -10 -61 -10 -30 0 -54 5 -54 10 0 6 27 10 61 10 37 0 58 -4 54
-10z"/>
<path d="M1458 300 c-10 -7 -23 -39 -33 -88 -9 -42 -19 -85 -22 -95 -4 -16 0
-18 28 -15 28 2 34 8 41 36 l9 32 70 0 c65 0 70 1 79 26 6 14 10 27 10 30 0 2
-34 4 -76 4 -47 0 -73 4 -69 10 3 6 48 10 101 10 74 0 94 3 94 14 0 8 3 21 6
30 5 14 -8 16 -107 16 -63 0 -122 -5 -131 -10z"/>
<path d="M1696 220 c-25 -121 -26 -120 120 -120 85 0 114 3 114 13 0 6 3 29 6
50 6 36 6 37 -24 37 -21 0 -31 -6 -35 -20 -4 -17 -14 -20 -66 -20 -42 0 -61 4
-61 13 1 13 17 90 26 120 4 14 -1 17 -28 17 l-34 0 -18 -90z"/>
<path d="M1997 298 c-10 -8 -24 -45 -34 -90 -22 -104 -19 -108 104 -108 52 0
103 4 113 10 11 6 23 30 30 62 6 29 14 61 16 70 5 16 28 18 252 20 239 3 247
4 247 23 0 20 -8 20 -355 23 -274 2 -360 -1 -373 -10z m163 -50 c0 -7 -3 -30
-6 -50 l-7 -38 -64 0 -65 0 7 43 c4 23 9 45 12 50 8 13 123 8 123 -5z"/>
</g>
</svg>
