<?xml version="1.0" encoding="UTF-8" standalone="no"?><!-- Generator: Gravit.io --><svg xmlns="http://www.w3.org/2000/svg" xmlns:xlink="http://www.w3.org/1999/xlink" style="isolation:isolate" viewBox="154.923 383.321 470.81 253.726" width="470.81pt" height="253.726pt"><g><path d=" M 154.923 397.785 C 154.929 391.245 156.207 383.83 169.816 383.711 C 195.685 383.485 193.057 383.416 218.93 383.322 C 242.152 383.238 267.547 389.611 279.445 399.531 C 304.046 420.041 298.141 467.832 274.321 478.642 C 258.29 485.667 252.878 487.896 240.578 489.68 C 224.403 492.025 215.85 487.814 216.039 495.992 C 216.354 509.586 216.65 527.248 216.65 527.248 C 216.862 531.52 214.206 536.648 205.643 536.52 C 191.05 536.303 184.612 536.532 170.024 536.278 C 156.858 536.049 155.951 529.354 155.918 522.9 C 155.805 501.079 154.901 420.094 154.923 397.785 Z " fill="rgb(249,214,72)"/><path d=" M 270.383 544.672 C 270.383 530.265 270.91 521.86 270.822 507.453 C 270.806 504.814 273.018 504.281 276.46 504.293 C 286.435 504.328 300.468 504.456 310.431 504.231 C 316.469 504.095 318.317 505.97 318.283 509.38 C 318.219 515.773 318.273 522.165 318.189 528.557 C 317.938 547.457 318.29 550.62 318.302 569.52 C 319.489 575.93 319.666 579.718 325.754 583.454 C 332.507 587.598 338.484 587.46 344.987 583.073 C 351.479 578.693 352.802 573.118 352.817 567.542 C 352.863 550.274 352.386 548.509 352.127 531.241 C 352.017 523.898 351.983 516.554 351.837 509.211 C 351.767 505.691 353.869 504.056 359.828 504.218 C 369.568 504.483 379.34 504.397 389.091 504.269 C 393.744 504.207 398.298 505.322 398.324 508.323 C 398.562 535.793 400.809 563.316 398.848 590.717 C 396.728 620.351 357.744 634.866 318.291 628.841 C 299.422 625.96 286.323 617.557 279.516 606.021 C 276.147 600.311 271.676 593.918 271.28 587.781 C 270.484 575.433 269.909 563.048 269.909 550.678 C 270.227 550.677 270.065 544.673 270.383 544.672 Z " fill="rgb(238,83,118)"/><path d=" M 422.723 546.853 C 422.727 542.264 423.474 536.748 431.434 536.665 C 446.566 536.506 445.029 536.457 460.162 536.392 C 473.745 536.332 488.599 540.804 495.559 547.765 C 509.948 562.156 506.495 595.689 492.562 603.273 C 483.185 608.203 477.589 609.767 470.394 611.018 C 460.933 612.664 460.718 611.656 460.828 617.395 C 461.012 626.933 461.185 630.54 461.185 630.54 C 461.31 633.537 459.756 637.136 454.747 637.046 C 446.211 636.894 440.089 637.055 431.556 636.876 C 423.855 636.716 423.325 632.018 423.305 627.49 C 423.239 612.178 422.71 562.506 422.723 546.853 Z " fill="rgb(251,205,228)"/><path d=" M 558.206 460.834 C 563.85 455.114 571.152 447.862 576.584 442.075 C 578.674 439.849 581.341 438.946 585.682 439.025 C 596.723 439.225 607.776 439.223 618.823 439.34 C 620.359 439.357 621.888 439.595 624.277 439.806 C 623.179 441.1 622.531 442.021 621.66 442.864 C 609.762 454.382 597.924 465.922 585.825 477.369 C 583.805 479.279 584.031 480.572 585.964 482.422 C 602.531 501.881 610.065 512.586 625.296 530.709 C 625.302 530.714 625.309 530.721 625.315 530.727 C 626.184 531.576 625.608 533.059 624.397 533.145 C 623.584 533.202 622.825 533.245 622.066 533.248 C 610.472 533.283 601.385 533.176 589.798 533.353 C 585.268 533.422 582.436 532.732 580.34 530.258 C 571.768 520.142 568.628 513.845 559.11 502.318 C 559.11 504.173 558.915 506.003 558.883 507.882 C 558.751 515.469 559.107 521.76 558.917 529.163 C 558.826 532.756 555.964 533.335 549.904 533.299 C 541.161 533.248 535.025 533.111 526.275 533.089 C 520.143 533.073 518.585 532.322 518.582 529.632 C 518.557 501.501 518.407 473.37 518.312 445.239 C 518.309 444.298 518.657 443.357 518.658 442.417 C 518.662 440.181 520.412 439.282 524.357 439.292 C 532.506 439.313 540.655 439.058 548.806 439.019 C 556.059 438.983 557.86 439.985 557.96 444.119 C 558.075 448.927 557.995 453.737 557.989 458.546 C 558.07 459.672 557.865 460.424 558.206 460.834 Z " fill="rgb(159,82,247)"/><path d=" M 485.371 393.952 C 495.889 396.22 495.899 396.22 495.921 403.228 C 495.936 408.166 495.792 419.181 495.976 424.116 C 496.062 426.419 494.414 427.369 490.586 427.293 C 488.622 427.253 486.646 427.364 484.69 427.284 C 474.601 426.87 467.495 429.705 464.218 434.864 C 461.247 439.541 459.02 443.063 458.506 448.014 C 457.643 456.332 458.204 452.56 458.593 460.906 C 458.709 463.389 459.923 465.909 461.216 468.307 C 463.794 473.089 469.03 475.374 477.463 475.657 C 482.233 475.817 487.027 476.029 491.785 475.902 C 495.875 475.794 497.193 476.724 497.153 478.967 C 497.045 485.044 497.175 498.715 497.158 504.793 C 497.148 508.251 493.532 510.289 488.269 510.942 C 461.892 514.212 431.558 509.129 419.392 492.65 C 408.311 477.64 406.768 462.026 407.47 446.146 C 407.721 440.465 408.201 434.72 409.905 429.141 C 415.257 411.616 428.915 397.968 461.77 393.952 L 485.371 393.952 Z " fill="rgb(111,234,223)"/><path d=" M 370.23 438.47 C 370.23 445.096 370.131 456.822 370.279 473.647 C 370.298 475.747 368.911 476.515 365.405 476.479 C 357.567 476.398 349.725 476.4 341.887 476.471 C 339.206 476.495 338.344 475.887 338.34 474.382 C 338.274 451.18 338.147 427.979 338.058 404.777 C 338.054 403.931 338.29 403.085 338.403 402.238 C 338.594 400.8 339.803 400.194 342.373 400.2 C 349.193 400.216 356.014 400.083 362.835 400.043 C 368.32 400.011 369.916 400.83 369.939 404.058 C 370.059 420.627 369.971 432.098 369.971 438.469 C 370.058 438.47 370.144 438.47 370.23 438.47 Z " fill="rgb(68,205,135)"/><path d=" M 356.907 423.571 C 336.865 423.571 344.717 423.539 324.675 423.6 C 321.084 423.611 319.772 422.799 319.834 420.748 C 319.972 416.163 319.969 406.474 319.847 401.889 C 319.805 400.321 320.846 399.817 323.419 399.814 C 363.076 399.776 339.971 399.701 379.628 399.649 C 381.074 399.647 382.521 399.785 383.968 399.851 C 386.428 399.963 387.463 400.67 387.453 402.174 C 387.425 406.164 387.653 415.254 387.721 419.244 C 387.776 422.453 386.376 423.387 380.859 423.401 C 361.253 423.449 376.515 423.42 356.909 423.42 C 356.908 423.47 356.907 423.52 356.907 423.571 Z " fill="rgb(68,205,135)"/><path d=" M 356.907 479.525 C 336.865 479.525 344.717 479.493 324.675 479.554 C 321.084 479.565 319.772 478.754 319.834 476.702 C 319.972 472.117 319.969 462.429 319.847 457.843 C 319.805 456.275 320.846 455.77 323.419 455.768 C 363.076 455.73 339.971 455.655 379.628 455.602 C 381.074 455.601 382.521 455.739 383.968 455.804 C 386.428 455.917 387.463 456.624 387.453 458.128 C 387.425 462.118 387.653 471.208 387.721 475.198 C 387.776 478.407 386.376 479.34 380.859 479.355 C 361.253 479.403 376.515 479.374 356.909 479.374 C 356.908 479.424 356.907 479.475 356.907 479.525 Z " fill="rgb(68,205,135)"/></g></svg>